<mxfile host="app.diagrams.net" modified="2024-05-19T18:26:26.437Z" agent="Mozilla/5.0 (Windows NT 10.0; Win64; x64) AppleWebKit/537.36 (KHTML, like Gecko) Chrome/124.0.0.0 Safari/537.36" etag="CvBW1TNg1NqPaw_nIeGq" version="24.4.4" type="device">
  <diagram id="C5RBs43oDa-KdzZeNtuy" name="Page-1">
    <mxGraphModel dx="3204" dy="2442" grid="1" gridSize="10" guides="1" tooltips="1" connect="1" arrows="1" fold="1" page="1" pageScale="1" pageWidth="827" pageHeight="1169" math="0" shadow="0">
      <root>
        <mxCell id="WIyWlLk6GJQsqaUBKTNV-0" />
        <mxCell id="WIyWlLk6GJQsqaUBKTNV-1" parent="WIyWlLk6GJQsqaUBKTNV-0" />
        <mxCell id="9yEsw26_se_vAOjHs-4n-23" value="&lt;font style=&quot;font-size: 14px;&quot;&gt;Bike Rental App&lt;/font&gt;" style="swimlane;whiteSpace=wrap;html=1;fillColor=#dae8fc;strokeColor=#6c8ebf;" parent="WIyWlLk6GJQsqaUBKTNV-1" vertex="1">
          <mxGeometry x="380" y="-800" width="200" height="240" as="geometry" />
        </mxCell>
        <mxCell id="9yEsw26_se_vAOjHs-4n-24" value="&lt;font style=&quot;font-size: 14px;&quot;&gt;&amp;nbsp; +user&lt;/font&gt;" style="text;html=1;align=left;verticalAlign=middle;resizable=0;points=[];autosize=1;strokeColor=none;fillColor=none;" parent="9yEsw26_se_vAOjHs-4n-23" vertex="1">
          <mxGeometry y="30" width="70" height="30" as="geometry" />
        </mxCell>
        <mxCell id="9yEsw26_se_vAOjHs-4n-25" value="&lt;font style=&quot;font-size: 14px;&quot;&gt;+bike&lt;/font&gt;" style="text;html=1;align=center;verticalAlign=middle;resizable=0;points=[];autosize=1;strokeColor=none;fillColor=none;" parent="9yEsw26_se_vAOjHs-4n-23" vertex="1">
          <mxGeometry x="-5" y="60" width="60" height="30" as="geometry" />
        </mxCell>
        <mxCell id="9yEsw26_se_vAOjHs-4n-26" value="&lt;font style=&quot;font-size: 14px;&quot;&gt;+bikePickupPoints&lt;/font&gt;" style="text;html=1;align=center;verticalAlign=middle;resizable=0;points=[];autosize=1;strokeColor=none;fillColor=none;" parent="9yEsw26_se_vAOjHs-4n-23" vertex="1">
          <mxGeometry x="-10" y="85" width="140" height="30" as="geometry" />
        </mxCell>
        <mxCell id="9yEsw26_se_vAOjHs-4n-28" value="" style="line;strokeWidth=1;fillColor=none;align=left;verticalAlign=middle;spacingTop=-1;spacingLeft=3;spacingRight=3;rotatable=0;labelPosition=right;points=[];portConstraint=eastwest;strokeColor=inherit;" parent="9yEsw26_se_vAOjHs-4n-23" vertex="1">
          <mxGeometry y="120" width="200" height="8" as="geometry" />
        </mxCell>
        <mxCell id="9yEsw26_se_vAOjHs-4n-29" value="&lt;font style=&quot;font-size: 14px;&quot;&gt;+update()&lt;/font&gt;" style="text;html=1;align=left;verticalAlign=middle;resizable=0;points=[];autosize=1;strokeColor=none;fillColor=none;" parent="9yEsw26_se_vAOjHs-4n-23" vertex="1">
          <mxGeometry y="128" width="80" height="30" as="geometry" />
        </mxCell>
        <mxCell id="9yEsw26_se_vAOjHs-4n-30" value="&lt;font style=&quot;font-size: 14px;&quot;&gt;+findNearestPickupPoint()&lt;/font&gt;" style="text;html=1;align=left;verticalAlign=middle;resizable=0;points=[];autosize=1;strokeColor=none;fillColor=none;" parent="9yEsw26_se_vAOjHs-4n-23" vertex="1">
          <mxGeometry y="158" width="190" height="30" as="geometry" />
        </mxCell>
        <mxCell id="LpYX-bLlqctvAwsmR8vE-1" value="&lt;font style=&quot;font-size: 14px;&quot;&gt;+Tracking()&lt;/font&gt;" style="text;html=1;align=left;verticalAlign=middle;resizable=0;points=[];autosize=1;strokeColor=none;fillColor=none;" vertex="1" parent="9yEsw26_se_vAOjHs-4n-23">
          <mxGeometry y="188" width="90" height="30" as="geometry" />
        </mxCell>
        <mxCell id="4qSzIOO_ZTqhYEnF2Uh6-5" style="edgeStyle=orthogonalEdgeStyle;rounded=0;orthogonalLoop=1;jettySize=auto;html=1;exitX=0.5;exitY=0;exitDx=0;exitDy=0;endArrow=diamondThin;endFill=0;endSize=25;" parent="WIyWlLk6GJQsqaUBKTNV-1" source="9yEsw26_se_vAOjHs-4n-32" edge="1">
          <mxGeometry relative="1" as="geometry">
            <mxPoint x="470" y="-560" as="targetPoint" />
          </mxGeometry>
        </mxCell>
        <mxCell id="9yEsw26_se_vAOjHs-4n-32" value="&lt;font style=&quot;font-size: 15px;&quot;&gt;User&lt;/font&gt;" style="swimlane;whiteSpace=wrap;html=1;startSize=20;fillColor=#e1d5e7;strokeColor=#9673a6;" parent="WIyWlLk6GJQsqaUBKTNV-1" vertex="1">
          <mxGeometry x="610" y="-410" width="220" height="400" as="geometry" />
        </mxCell>
        <mxCell id="9yEsw26_se_vAOjHs-4n-33" value="&lt;font style=&quot;font-size: 14px;&quot;&gt;&amp;nbsp; - username&lt;/font&gt;" style="text;html=1;align=left;verticalAlign=middle;resizable=0;points=[];autosize=1;strokeColor=none;fillColor=none;" parent="9yEsw26_se_vAOjHs-4n-32" vertex="1">
          <mxGeometry y="30" width="100" height="30" as="geometry" />
        </mxCell>
        <mxCell id="9yEsw26_se_vAOjHs-4n-34" value="&lt;font style=&quot;font-size: 14px;&quot;&gt;- email&lt;/font&gt;" style="text;html=1;align=center;verticalAlign=middle;resizable=0;points=[];autosize=1;strokeColor=none;fillColor=none;" parent="9yEsw26_se_vAOjHs-4n-32" vertex="1">
          <mxGeometry x="-10" y="60" width="70" height="30" as="geometry" />
        </mxCell>
        <mxCell id="9yEsw26_se_vAOjHs-4n-35" value="&lt;font style=&quot;font-size: 14px;&quot;&gt;- password&lt;/font&gt;" style="text;html=1;align=center;verticalAlign=middle;resizable=0;points=[];autosize=1;strokeColor=none;fillColor=none;" parent="9yEsw26_se_vAOjHs-4n-32" vertex="1">
          <mxGeometry x="-10" y="85" width="90" height="30" as="geometry" />
        </mxCell>
        <mxCell id="9yEsw26_se_vAOjHs-4n-36" value="" style="line;strokeWidth=1;fillColor=none;align=left;verticalAlign=middle;spacingTop=-1;spacingLeft=3;spacingRight=3;rotatable=0;labelPosition=right;points=[];portConstraint=eastwest;strokeColor=inherit;" parent="9yEsw26_se_vAOjHs-4n-32" vertex="1">
          <mxGeometry y="150" width="220" height="8" as="geometry" />
        </mxCell>
        <mxCell id="9yEsw26_se_vAOjHs-4n-39" value="&lt;font style=&quot;font-size: 14px;&quot;&gt;- mobile_number&lt;/font&gt;" style="text;html=1;align=center;verticalAlign=middle;resizable=0;points=[];autosize=1;strokeColor=none;fillColor=none;" parent="9yEsw26_se_vAOjHs-4n-32" vertex="1">
          <mxGeometry x="-15" y="108" width="130" height="30" as="geometry" />
        </mxCell>
        <mxCell id="9yEsw26_se_vAOjHs-4n-42" value="&lt;font style=&quot;font-size: 14px;&quot;&gt;+&amp;nbsp; Login()&lt;/font&gt;" style="text;html=1;align=left;verticalAlign=middle;resizable=0;points=[];autosize=1;strokeColor=none;fillColor=none;" parent="9yEsw26_se_vAOjHs-4n-32" vertex="1">
          <mxGeometry y="188" width="80" height="30" as="geometry" />
        </mxCell>
        <mxCell id="9yEsw26_se_vAOjHs-4n-43" value="&lt;font style=&quot;font-size: 14px;&quot;&gt;+&amp;nbsp; getNavigation()&lt;/font&gt;" style="text;html=1;align=left;verticalAlign=middle;resizable=0;points=[];autosize=1;strokeColor=none;fillColor=none;" parent="9yEsw26_se_vAOjHs-4n-32" vertex="1">
          <mxGeometry y="218" width="130" height="30" as="geometry" />
        </mxCell>
        <mxCell id="9yEsw26_se_vAOjHs-4n-44" value="&lt;font style=&quot;font-size: 14px;&quot;&gt;+&amp;nbsp; Register()&lt;/font&gt;" style="text;html=1;align=left;verticalAlign=middle;resizable=0;points=[];autosize=1;strokeColor=none;fillColor=none;" parent="9yEsw26_se_vAOjHs-4n-32" vertex="1">
          <mxGeometry y="158" width="100" height="30" as="geometry" />
        </mxCell>
        <mxCell id="9yEsw26_se_vAOjHs-4n-45" value="&lt;font style=&quot;font-size: 14px;&quot;&gt;+ getBike()&lt;/font&gt;" style="text;html=1;align=left;verticalAlign=middle;resizable=0;points=[];autosize=1;strokeColor=none;fillColor=none;" parent="9yEsw26_se_vAOjHs-4n-32" vertex="1">
          <mxGeometry y="248" width="90" height="30" as="geometry" />
        </mxCell>
        <mxCell id="9yEsw26_se_vAOjHs-4n-46" value="&lt;font style=&quot;font-size: 14px;&quot;&gt;+ getNavigation()&lt;/font&gt;" style="text;html=1;align=left;verticalAlign=middle;resizable=0;points=[];autosize=1;strokeColor=none;fillColor=none;" parent="9yEsw26_se_vAOjHs-4n-32" vertex="1">
          <mxGeometry y="278" width="130" height="30" as="geometry" />
        </mxCell>
        <mxCell id="9yEsw26_se_vAOjHs-4n-47" value="&lt;font style=&quot;font-size: 14px;&quot;&gt;+ getBikeDetails()&lt;/font&gt;" style="text;html=1;align=left;verticalAlign=middle;resizable=0;points=[];autosize=1;strokeColor=none;fillColor=none;" parent="9yEsw26_se_vAOjHs-4n-32" vertex="1">
          <mxGeometry y="310" width="130" height="30" as="geometry" />
        </mxCell>
        <mxCell id="9yEsw26_se_vAOjHs-4n-48" value="&lt;font style=&quot;font-size: 14px;&quot;&gt;+ displayReciept()&lt;/font&gt;" style="text;html=1;align=left;verticalAlign=middle;resizable=0;points=[];autosize=1;strokeColor=none;fillColor=none;" parent="9yEsw26_se_vAOjHs-4n-32" vertex="1">
          <mxGeometry y="340" width="140" height="30" as="geometry" />
        </mxCell>
        <mxCell id="9yEsw26_se_vAOjHs-4n-49" value="&lt;font style=&quot;font-size: 14px;&quot;&gt;+totalCost()&lt;/font&gt;" style="text;html=1;align=left;verticalAlign=middle;resizable=0;points=[];autosize=1;strokeColor=none;fillColor=none;" parent="9yEsw26_se_vAOjHs-4n-32" vertex="1">
          <mxGeometry y="370" width="100" height="30" as="geometry" />
        </mxCell>
        <mxCell id="LpYX-bLlqctvAwsmR8vE-10" style="edgeStyle=orthogonalEdgeStyle;rounded=0;orthogonalLoop=1;jettySize=auto;html=1;exitX=1;exitY=0.5;exitDx=0;exitDy=0;entryX=0.5;entryY=1;entryDx=0;entryDy=0;endArrow=none;endFill=0;" edge="1" parent="WIyWlLk6GJQsqaUBKTNV-1" source="9yEsw26_se_vAOjHs-4n-50" target="9yEsw26_se_vAOjHs-4n-159">
          <mxGeometry relative="1" as="geometry" />
        </mxCell>
        <mxCell id="9yEsw26_se_vAOjHs-4n-50" value="&lt;font style=&quot;font-size: 15px;&quot;&gt;Account&lt;/font&gt;" style="swimlane;whiteSpace=wrap;html=1;fillColor=#f5f5f5;gradientColor=#b3b3b3;strokeColor=#666666;" parent="WIyWlLk6GJQsqaUBKTNV-1" vertex="1">
          <mxGeometry x="1000" y="-420" width="200" height="170" as="geometry" />
        </mxCell>
        <mxCell id="9yEsw26_se_vAOjHs-4n-51" value="&lt;font style=&quot;font-size: 14px;&quot;&gt;&amp;nbsp; - username&lt;/font&gt;" style="text;html=1;align=left;verticalAlign=middle;resizable=0;points=[];autosize=1;strokeColor=none;fillColor=none;" parent="9yEsw26_se_vAOjHs-4n-50" vertex="1">
          <mxGeometry y="30" width="100" height="30" as="geometry" />
        </mxCell>
        <mxCell id="9yEsw26_se_vAOjHs-4n-53" value="&lt;font style=&quot;font-size: 14px;&quot;&gt;- password&lt;/font&gt;" style="text;html=1;align=center;verticalAlign=middle;resizable=0;points=[];autosize=1;strokeColor=none;fillColor=none;" parent="9yEsw26_se_vAOjHs-4n-50" vertex="1">
          <mxGeometry x="-10" y="60" width="90" height="30" as="geometry" />
        </mxCell>
        <mxCell id="9yEsw26_se_vAOjHs-4n-54" value="" style="line;strokeWidth=1;fillColor=none;align=left;verticalAlign=middle;spacingTop=-1;spacingLeft=3;spacingRight=3;rotatable=0;labelPosition=right;points=[];portConstraint=eastwest;strokeColor=inherit;" parent="9yEsw26_se_vAOjHs-4n-50" vertex="1">
          <mxGeometry y="90" width="200" height="8" as="geometry" />
        </mxCell>
        <mxCell id="9yEsw26_se_vAOjHs-4n-56" value="&lt;font style=&quot;font-size: 14px;&quot;&gt;+&amp;nbsp; Login()&lt;/font&gt;" style="text;html=1;align=left;verticalAlign=middle;resizable=0;points=[];autosize=1;strokeColor=none;fillColor=none;" parent="9yEsw26_se_vAOjHs-4n-50" vertex="1">
          <mxGeometry y="98" width="80" height="30" as="geometry" />
        </mxCell>
        <mxCell id="9yEsw26_se_vAOjHs-4n-65" value="&lt;font style=&quot;font-size: 14px;&quot;&gt;+&amp;nbsp; Register&lt;/font&gt;" style="text;html=1;align=left;verticalAlign=middle;resizable=0;points=[];autosize=1;strokeColor=none;fillColor=none;" parent="9yEsw26_se_vAOjHs-4n-50" vertex="1">
          <mxGeometry y="125" width="90" height="30" as="geometry" />
        </mxCell>
        <mxCell id="LpYX-bLlqctvAwsmR8vE-3" style="edgeStyle=orthogonalEdgeStyle;rounded=0;orthogonalLoop=1;jettySize=auto;html=1;exitX=0.5;exitY=0;exitDx=0;exitDy=0;endArrow=none;endFill=0;" edge="1" parent="WIyWlLk6GJQsqaUBKTNV-1" source="9yEsw26_se_vAOjHs-4n-67">
          <mxGeometry relative="1" as="geometry">
            <mxPoint x="309.8888888888889" y="-480" as="targetPoint" />
          </mxGeometry>
        </mxCell>
        <mxCell id="9yEsw26_se_vAOjHs-4n-67" value="&lt;font style=&quot;font-size: 15px;&quot;&gt;Bike&lt;/font&gt;" style="swimlane;whiteSpace=wrap;html=1;fillColor=#f8cecc;strokeColor=#b85450;" parent="WIyWlLk6GJQsqaUBKTNV-1" vertex="1">
          <mxGeometry x="210" y="-410" width="200" height="230" as="geometry" />
        </mxCell>
        <mxCell id="9yEsw26_se_vAOjHs-4n-68" value="&lt;font style=&quot;font-size: 14px;&quot;&gt;- bikeNumber&lt;/font&gt;" style="text;html=1;align=left;verticalAlign=middle;resizable=0;points=[];autosize=1;strokeColor=none;fillColor=none;" parent="9yEsw26_se_vAOjHs-4n-67" vertex="1">
          <mxGeometry y="30" width="110" height="30" as="geometry" />
        </mxCell>
        <mxCell id="9yEsw26_se_vAOjHs-4n-69" value="&lt;font style=&quot;font-size: 14px;&quot;&gt;- bikeSize&lt;/font&gt;" style="text;html=1;align=left;verticalAlign=middle;resizable=0;points=[];autosize=1;strokeColor=none;fillColor=none;" parent="9yEsw26_se_vAOjHs-4n-67" vertex="1">
          <mxGeometry y="60" width="80" height="30" as="geometry" />
        </mxCell>
        <mxCell id="9yEsw26_se_vAOjHs-4n-70" value="&lt;font style=&quot;font-size: 14px;&quot;&gt;- bikeCondition&lt;/font&gt;" style="text;html=1;align=left;verticalAlign=middle;resizable=0;points=[];autosize=1;strokeColor=none;fillColor=none;" parent="9yEsw26_se_vAOjHs-4n-67" vertex="1">
          <mxGeometry y="90" width="120" height="30" as="geometry" />
        </mxCell>
        <mxCell id="9yEsw26_se_vAOjHs-4n-71" value="" style="line;strokeWidth=1;fillColor=none;align=left;verticalAlign=middle;spacingTop=-1;spacingLeft=3;spacingRight=3;rotatable=0;labelPosition=right;points=[];portConstraint=eastwest;strokeColor=inherit;" parent="9yEsw26_se_vAOjHs-4n-67" vertex="1">
          <mxGeometry y="150" width="200" height="8" as="geometry" />
        </mxCell>
        <mxCell id="9yEsw26_se_vAOjHs-4n-72" value="&lt;font style=&quot;font-size: 14px;&quot;&gt;- bikeType&lt;/font&gt;" style="text;html=1;align=left;verticalAlign=middle;resizable=0;points=[];autosize=1;strokeColor=none;fillColor=none;" parent="9yEsw26_se_vAOjHs-4n-67" vertex="1">
          <mxGeometry y="120" width="90" height="30" as="geometry" />
        </mxCell>
        <mxCell id="9yEsw26_se_vAOjHs-4n-73" value="&lt;font style=&quot;font-size: 14px;&quot;&gt;+ unlockBike()&lt;/font&gt;" style="text;html=1;align=left;verticalAlign=middle;resizable=0;points=[];autosize=1;strokeColor=none;fillColor=none;" parent="9yEsw26_se_vAOjHs-4n-67" vertex="1">
          <mxGeometry y="188" width="110" height="30" as="geometry" />
        </mxCell>
        <mxCell id="9yEsw26_se_vAOjHs-4n-75" value="&lt;font style=&quot;font-size: 14px;&quot;&gt;+ lockBike()&lt;/font&gt;" style="text;html=1;align=left;verticalAlign=middle;resizable=0;points=[];autosize=1;strokeColor=none;fillColor=none;" parent="9yEsw26_se_vAOjHs-4n-67" vertex="1">
          <mxGeometry y="158" width="100" height="30" as="geometry" />
        </mxCell>
        <mxCell id="9yEsw26_se_vAOjHs-4n-97" value="&lt;font style=&quot;font-size: 15px;&quot;&gt;Rent&lt;/font&gt;" style="swimlane;whiteSpace=wrap;html=1;startSize=23;fillColor=#e3c800;fontColor=#000000;strokeColor=#B09500;" parent="WIyWlLk6GJQsqaUBKTNV-1" vertex="1">
          <mxGeometry x="580" y="130" width="200" height="420" as="geometry" />
        </mxCell>
        <mxCell id="9yEsw26_se_vAOjHs-4n-98" value="&lt;font style=&quot;font-size: 14px;&quot;&gt;- rent_ID&lt;/font&gt;" style="text;html=1;align=left;verticalAlign=middle;resizable=0;points=[];autosize=1;strokeColor=none;fillColor=none;" parent="9yEsw26_se_vAOjHs-4n-97" vertex="1">
          <mxGeometry y="30" width="80" height="30" as="geometry" />
        </mxCell>
        <mxCell id="9yEsw26_se_vAOjHs-4n-99" value="&lt;font style=&quot;font-size: 14px;&quot;&gt;- username&lt;/font&gt;" style="text;html=1;align=left;verticalAlign=middle;resizable=0;points=[];autosize=1;strokeColor=none;fillColor=none;" parent="9yEsw26_se_vAOjHs-4n-97" vertex="1">
          <mxGeometry y="60" width="90" height="30" as="geometry" />
        </mxCell>
        <mxCell id="9yEsw26_se_vAOjHs-4n-100" value="&lt;font style=&quot;font-size: 14px;&quot;&gt;- bikeNumber&lt;/font&gt;" style="text;html=1;align=left;verticalAlign=middle;resizable=0;points=[];autosize=1;strokeColor=none;fillColor=none;" parent="9yEsw26_se_vAOjHs-4n-97" vertex="1">
          <mxGeometry y="90" width="110" height="30" as="geometry" />
        </mxCell>
        <mxCell id="9yEsw26_se_vAOjHs-4n-101" value="" style="line;strokeWidth=1;fillColor=none;align=left;verticalAlign=middle;spacingTop=-1;spacingLeft=3;spacingRight=3;rotatable=0;labelPosition=right;points=[];portConstraint=eastwest;strokeColor=inherit;" parent="9yEsw26_se_vAOjHs-4n-97" vertex="1">
          <mxGeometry y="230" width="200" height="8" as="geometry" />
        </mxCell>
        <mxCell id="9yEsw26_se_vAOjHs-4n-103" value="&lt;font style=&quot;font-size: 14px;&quot;&gt;+&amp;nbsp; totalCost()&lt;/font&gt;" style="text;html=1;align=left;verticalAlign=middle;resizable=0;points=[];autosize=1;strokeColor=none;fillColor=none;" parent="9yEsw26_se_vAOjHs-4n-97" vertex="1">
          <mxGeometry y="270" width="100" height="30" as="geometry" />
        </mxCell>
        <mxCell id="9yEsw26_se_vAOjHs-4n-104" value="&lt;font style=&quot;font-size: 14px;&quot;&gt;+&amp;nbsp; location()&lt;/font&gt;" style="text;html=1;align=left;verticalAlign=middle;resizable=0;points=[];autosize=1;strokeColor=none;fillColor=none;" parent="9yEsw26_se_vAOjHs-4n-97" vertex="1">
          <mxGeometry y="300" width="100" height="30" as="geometry" />
        </mxCell>
        <mxCell id="9yEsw26_se_vAOjHs-4n-105" value="&lt;font style=&quot;font-size: 14px;&quot;&gt;+&amp;nbsp; rentInfo()&lt;/font&gt;" style="text;html=1;align=left;verticalAlign=middle;resizable=0;points=[];autosize=1;strokeColor=none;fillColor=none;" parent="9yEsw26_se_vAOjHs-4n-97" vertex="1">
          <mxGeometry y="240" width="100" height="30" as="geometry" />
        </mxCell>
        <mxCell id="9yEsw26_se_vAOjHs-4n-113" value="&lt;font style=&quot;font-size: 14px;&quot;&gt;- cost&lt;/font&gt;" style="text;html=1;align=left;verticalAlign=middle;resizable=0;points=[];autosize=1;strokeColor=none;fillColor=none;" parent="9yEsw26_se_vAOjHs-4n-97" vertex="1">
          <mxGeometry y="150" width="60" height="30" as="geometry" />
        </mxCell>
        <mxCell id="Fz7Sqv5tZNAhbaINTQDV-13" value="&lt;font style=&quot;font-size: 14px;&quot;&gt;- monthlyRent&lt;/font&gt;" style="text;html=1;align=left;verticalAlign=middle;resizable=0;points=[];autosize=1;strokeColor=none;fillColor=none;" parent="9yEsw26_se_vAOjHs-4n-97" vertex="1">
          <mxGeometry y="120" width="110" height="30" as="geometry" />
        </mxCell>
        <mxCell id="Fz7Sqv5tZNAhbaINTQDV-14" value="&lt;font style=&quot;font-size: 14px;&quot;&gt;- monthDuration&lt;/font&gt;" style="text;html=1;align=left;verticalAlign=middle;resizable=0;points=[];autosize=1;strokeColor=none;fillColor=none;" parent="9yEsw26_se_vAOjHs-4n-97" vertex="1">
          <mxGeometry y="180" width="120" height="30" as="geometry" />
        </mxCell>
        <mxCell id="Fz7Sqv5tZNAhbaINTQDV-15" value="&lt;font style=&quot;font-size: 14px;&quot;&gt;+monthlyCost()&lt;/font&gt;" style="text;html=1;align=left;verticalAlign=middle;resizable=0;points=[];autosize=1;strokeColor=none;fillColor=none;" parent="9yEsw26_se_vAOjHs-4n-97" vertex="1">
          <mxGeometry y="330" width="120" height="30" as="geometry" />
        </mxCell>
        <mxCell id="Fz7Sqv5tZNAhbaINTQDV-16" value="&lt;font style=&quot;font-size: 14px;&quot;&gt;+getBike()&lt;/font&gt;" style="text;html=1;align=left;verticalAlign=middle;resizable=0;points=[];autosize=1;strokeColor=none;fillColor=none;" parent="9yEsw26_se_vAOjHs-4n-97" vertex="1">
          <mxGeometry y="360" width="90" height="30" as="geometry" />
        </mxCell>
        <mxCell id="4qSzIOO_ZTqhYEnF2Uh6-28" style="edgeStyle=orthogonalEdgeStyle;rounded=0;orthogonalLoop=1;jettySize=auto;html=1;exitX=0.5;exitY=0;exitDx=0;exitDy=0;entryX=0.5;entryY=1;entryDx=0;entryDy=0;endArrow=none;endFill=0;" parent="WIyWlLk6GJQsqaUBKTNV-1" source="9yEsw26_se_vAOjHs-4n-114" target="9yEsw26_se_vAOjHs-4n-32" edge="1">
          <mxGeometry relative="1" as="geometry" />
        </mxCell>
        <mxCell id="LpYX-bLlqctvAwsmR8vE-0" style="edgeStyle=orthogonalEdgeStyle;rounded=0;orthogonalLoop=1;jettySize=auto;html=1;exitX=0.25;exitY=0;exitDx=0;exitDy=0;endArrow=block;endFill=0;endSize=15;entryX=0.25;entryY=1;entryDx=0;entryDy=0;" edge="1" parent="WIyWlLk6GJQsqaUBKTNV-1" source="9yEsw26_se_vAOjHs-4n-114" target="Fz7Sqv5tZNAhbaINTQDV-4">
          <mxGeometry relative="1" as="geometry">
            <mxPoint x="-100" y="-70" as="targetPoint" />
          </mxGeometry>
        </mxCell>
        <mxCell id="9yEsw26_se_vAOjHs-4n-114" value="&lt;font style=&quot;font-size: 15px;&quot;&gt;Midway Stop&lt;/font&gt;" style="swimlane;whiteSpace=wrap;html=1;fillColor=#fff2cc;strokeColor=#d6b656;" parent="WIyWlLk6GJQsqaUBKTNV-1" vertex="1">
          <mxGeometry x="-220" y="165" width="200" height="370" as="geometry" />
        </mxCell>
        <mxCell id="9yEsw26_se_vAOjHs-4n-115" value="&lt;font style=&quot;font-size: 14px;&quot;&gt;-&amp;nbsp; location&lt;/font&gt;" style="text;html=1;align=left;verticalAlign=middle;resizable=0;points=[];autosize=1;strokeColor=none;fillColor=none;" parent="9yEsw26_se_vAOjHs-4n-114" vertex="1">
          <mxGeometry y="30" width="80" height="30" as="geometry" />
        </mxCell>
        <mxCell id="9yEsw26_se_vAOjHs-4n-116" value="&lt;font style=&quot;font-size: 14px;&quot;&gt;-&amp;nbsp; parkingLocation&lt;/font&gt;" style="text;html=1;align=left;verticalAlign=middle;resizable=0;points=[];autosize=1;strokeColor=none;fillColor=none;" parent="9yEsw26_se_vAOjHs-4n-114" vertex="1">
          <mxGeometry y="60" width="130" height="30" as="geometry" />
        </mxCell>
        <mxCell id="9yEsw26_se_vAOjHs-4n-117" value="" style="line;strokeWidth=1;fillColor=none;align=left;verticalAlign=middle;spacingTop=-1;spacingLeft=3;spacingRight=3;rotatable=0;labelPosition=right;points=[];portConstraint=eastwest;strokeColor=inherit;" parent="9yEsw26_se_vAOjHs-4n-114" vertex="1">
          <mxGeometry y="150" width="200" height="8" as="geometry" />
        </mxCell>
        <mxCell id="9yEsw26_se_vAOjHs-4n-119" value="&lt;font style=&quot;font-size: 14px;&quot;&gt;+&amp;nbsp; location()&lt;/font&gt;" style="text;html=1;align=left;verticalAlign=middle;resizable=0;points=[];autosize=1;strokeColor=none;fillColor=none;" parent="9yEsw26_se_vAOjHs-4n-114" vertex="1">
          <mxGeometry y="158" width="100" height="30" as="geometry" />
        </mxCell>
        <mxCell id="9yEsw26_se_vAOjHs-4n-120" value="&lt;font style=&quot;font-size: 14px;&quot;&gt;+&amp;nbsp; getParking()&lt;/font&gt;" style="text;html=1;align=left;verticalAlign=middle;resizable=0;points=[];autosize=1;strokeColor=none;fillColor=none;" parent="9yEsw26_se_vAOjHs-4n-114" vertex="1">
          <mxGeometry y="188" width="120" height="30" as="geometry" />
        </mxCell>
        <mxCell id="9yEsw26_se_vAOjHs-4n-123" value="&lt;font style=&quot;font-size: 14px;&quot;&gt;+ getNavigation()&lt;/font&gt;" style="text;html=1;align=left;verticalAlign=middle;resizable=0;points=[];autosize=1;strokeColor=none;fillColor=none;" parent="9yEsw26_se_vAOjHs-4n-114" vertex="1">
          <mxGeometry y="218" width="130" height="30" as="geometry" />
        </mxCell>
        <mxCell id="9yEsw26_se_vAOjHs-4n-126" value="&lt;font style=&quot;font-size: 14px;&quot;&gt;-&amp;nbsp; bikeNumber&lt;/font&gt;" style="text;html=1;align=left;verticalAlign=middle;resizable=0;points=[];autosize=1;strokeColor=none;fillColor=none;" parent="9yEsw26_se_vAOjHs-4n-114" vertex="1">
          <mxGeometry y="90" width="110" height="30" as="geometry" />
        </mxCell>
        <mxCell id="9yEsw26_se_vAOjHs-4n-128" value="&lt;font style=&quot;font-size: 14px;&quot;&gt;-&amp;nbsp; pauseTime&lt;/font&gt;" style="text;html=1;align=left;verticalAlign=middle;resizable=0;points=[];autosize=1;strokeColor=none;fillColor=none;" parent="9yEsw26_se_vAOjHs-4n-114" vertex="1">
          <mxGeometry y="120" width="100" height="30" as="geometry" />
        </mxCell>
        <mxCell id="9yEsw26_se_vAOjHs-4n-129" value="&lt;font style=&quot;font-size: 14px;&quot;&gt;+ Pause()&lt;/font&gt;" style="text;html=1;align=left;verticalAlign=middle;resizable=0;points=[];autosize=1;strokeColor=none;fillColor=none;" parent="9yEsw26_se_vAOjHs-4n-114" vertex="1">
          <mxGeometry y="248" width="80" height="30" as="geometry" />
        </mxCell>
        <mxCell id="9yEsw26_se_vAOjHs-4n-130" value="&lt;font style=&quot;font-size: 14px;&quot;&gt;+ Resume()&lt;/font&gt;" style="text;html=1;align=left;verticalAlign=middle;resizable=0;points=[];autosize=1;strokeColor=none;fillColor=none;" parent="9yEsw26_se_vAOjHs-4n-114" vertex="1">
          <mxGeometry y="278" width="100" height="30" as="geometry" />
        </mxCell>
        <mxCell id="9yEsw26_se_vAOjHs-4n-132" value="&lt;font style=&quot;font-size: 14px;&quot;&gt;+ unlockBike()&lt;/font&gt;" style="text;html=1;align=left;verticalAlign=middle;resizable=0;points=[];autosize=1;strokeColor=none;fillColor=none;" parent="9yEsw26_se_vAOjHs-4n-114" vertex="1">
          <mxGeometry y="308" width="110" height="30" as="geometry" />
        </mxCell>
        <mxCell id="9yEsw26_se_vAOjHs-4n-133" value="&lt;font style=&quot;font-size: 14px;&quot;&gt;+ lockBike()&lt;/font&gt;" style="text;html=1;align=left;verticalAlign=middle;resizable=0;points=[];autosize=1;strokeColor=none;fillColor=none;" parent="9yEsw26_se_vAOjHs-4n-114" vertex="1">
          <mxGeometry y="338" width="100" height="30" as="geometry" />
        </mxCell>
        <mxCell id="4qSzIOO_ZTqhYEnF2Uh6-24" style="edgeStyle=orthogonalEdgeStyle;rounded=0;orthogonalLoop=1;jettySize=auto;html=1;exitX=0.5;exitY=0;exitDx=0;exitDy=0;entryX=0.5;entryY=1;entryDx=0;entryDy=0;endArrow=none;endFill=0;" parent="WIyWlLk6GJQsqaUBKTNV-1" source="9yEsw26_se_vAOjHs-4n-134" target="9yEsw26_se_vAOjHs-4n-32" edge="1">
          <mxGeometry relative="1" as="geometry" />
        </mxCell>
        <mxCell id="9yEsw26_se_vAOjHs-4n-134" value="&lt;font style=&quot;font-size: 15px;&quot;&gt;Navigation Support&lt;/font&gt;" style="swimlane;whiteSpace=wrap;html=1;fillColor=#b1ddf0;strokeColor=#10739e;" parent="WIyWlLk6GJQsqaUBKTNV-1" vertex="1">
          <mxGeometry x="941" y="165" width="200" height="360" as="geometry" />
        </mxCell>
        <mxCell id="9yEsw26_se_vAOjHs-4n-135" value="&lt;font style=&quot;font-size: 14px;&quot;&gt;-&amp;nbsp; location&lt;/font&gt;" style="text;html=1;align=left;verticalAlign=middle;resizable=0;points=[];autosize=1;strokeColor=none;fillColor=none;" parent="9yEsw26_se_vAOjHs-4n-134" vertex="1">
          <mxGeometry y="30" width="80" height="30" as="geometry" />
        </mxCell>
        <mxCell id="9yEsw26_se_vAOjHs-4n-136" value="&lt;font style=&quot;font-size: 14px;&quot;&gt;-&amp;nbsp; parkingLocation&lt;/font&gt;" style="text;html=1;align=left;verticalAlign=middle;resizable=0;points=[];autosize=1;strokeColor=none;fillColor=none;" parent="9yEsw26_se_vAOjHs-4n-134" vertex="1">
          <mxGeometry y="60" width="130" height="30" as="geometry" />
        </mxCell>
        <mxCell id="9yEsw26_se_vAOjHs-4n-137" value="" style="line;strokeWidth=1;fillColor=none;align=left;verticalAlign=middle;spacingTop=-1;spacingLeft=3;spacingRight=3;rotatable=0;labelPosition=right;points=[];portConstraint=eastwest;strokeColor=inherit;" parent="9yEsw26_se_vAOjHs-4n-134" vertex="1">
          <mxGeometry y="150" width="200" height="8" as="geometry" />
        </mxCell>
        <mxCell id="9yEsw26_se_vAOjHs-4n-138" value="&lt;font style=&quot;font-size: 14px;&quot;&gt;- route&lt;/font&gt;" style="text;html=1;align=left;verticalAlign=middle;resizable=0;points=[];autosize=1;strokeColor=none;fillColor=none;" parent="9yEsw26_se_vAOjHs-4n-134" vertex="1">
          <mxGeometry y="120" width="60" height="30" as="geometry" />
        </mxCell>
        <mxCell id="9yEsw26_se_vAOjHs-4n-139" value="&lt;font style=&quot;font-size: 14px;&quot;&gt;+&amp;nbsp; location()&lt;/font&gt;" style="text;html=1;align=left;verticalAlign=middle;resizable=0;points=[];autosize=1;strokeColor=none;fillColor=none;" parent="9yEsw26_se_vAOjHs-4n-134" vertex="1">
          <mxGeometry y="188" width="100" height="30" as="geometry" />
        </mxCell>
        <mxCell id="9yEsw26_se_vAOjHs-4n-140" value="&lt;font style=&quot;font-size: 14px;&quot;&gt;+&amp;nbsp; getParking()&lt;/font&gt;" style="text;html=1;align=left;verticalAlign=middle;resizable=0;points=[];autosize=1;strokeColor=none;fillColor=none;" parent="9yEsw26_se_vAOjHs-4n-134" vertex="1">
          <mxGeometry y="218" width="120" height="30" as="geometry" />
        </mxCell>
        <mxCell id="9yEsw26_se_vAOjHs-4n-141" value="&lt;font style=&quot;font-size: 14px;&quot;&gt;+&amp;nbsp; getRoute()&lt;/font&gt;" style="text;html=1;align=left;verticalAlign=middle;resizable=0;points=[];autosize=1;strokeColor=none;fillColor=none;" parent="9yEsw26_se_vAOjHs-4n-134" vertex="1">
          <mxGeometry y="158" width="110" height="30" as="geometry" />
        </mxCell>
        <mxCell id="9yEsw26_se_vAOjHs-4n-142" value="&lt;font style=&quot;font-size: 14px;&quot;&gt;+ getBike()&lt;/font&gt;" style="text;html=1;align=left;verticalAlign=middle;resizable=0;points=[];autosize=1;strokeColor=none;fillColor=none;" parent="9yEsw26_se_vAOjHs-4n-134" vertex="1">
          <mxGeometry y="248" width="90" height="30" as="geometry" />
        </mxCell>
        <mxCell id="9yEsw26_se_vAOjHs-4n-143" value="&lt;font style=&quot;font-size: 14px;&quot;&gt;+ getNavigation()&lt;/font&gt;" style="text;html=1;align=left;verticalAlign=middle;resizable=0;points=[];autosize=1;strokeColor=none;fillColor=none;" parent="9yEsw26_se_vAOjHs-4n-134" vertex="1">
          <mxGeometry y="278" width="130" height="30" as="geometry" />
        </mxCell>
        <mxCell id="9yEsw26_se_vAOjHs-4n-144" value="&lt;font style=&quot;font-size: 14px;&quot;&gt;-&amp;nbsp; bikePickupPoints&lt;/font&gt;" style="text;html=1;align=left;verticalAlign=middle;resizable=0;points=[];autosize=1;strokeColor=none;fillColor=none;rotation=0;" parent="9yEsw26_se_vAOjHs-4n-134" vertex="1">
          <mxGeometry y="90" width="140" height="30" as="geometry" />
        </mxCell>
        <mxCell id="4qSzIOO_ZTqhYEnF2Uh6-36" style="edgeStyle=orthogonalEdgeStyle;rounded=0;orthogonalLoop=1;jettySize=auto;html=1;exitX=1.001;exitY=0.65;exitDx=0;exitDy=0;endArrow=none;endFill=0;startArrow=diamondThin;startFill=1;startSize=26;exitPerimeter=0;" parent="WIyWlLk6GJQsqaUBKTNV-1" source="9yEsw26_se_vAOjHs-4n-162" edge="1">
          <mxGeometry relative="1" as="geometry">
            <mxPoint x="577" y="352" as="targetPoint" />
            <Array as="points">
              <mxPoint x="577" y="352" />
            </Array>
          </mxGeometry>
        </mxCell>
        <mxCell id="LpYX-bLlqctvAwsmR8vE-4" style="edgeStyle=orthogonalEdgeStyle;rounded=0;orthogonalLoop=1;jettySize=auto;html=1;exitX=0.5;exitY=0;exitDx=0;exitDy=0;endArrow=none;endFill=0;" edge="1" parent="WIyWlLk6GJQsqaUBKTNV-1" source="9yEsw26_se_vAOjHs-4n-159">
          <mxGeometry relative="1" as="geometry">
            <mxPoint x="339.74" y="78" as="targetPoint" />
            <mxPoint x="339.74" y="163" as="sourcePoint" />
          </mxGeometry>
        </mxCell>
        <mxCell id="9yEsw26_se_vAOjHs-4n-159" value="&lt;font style=&quot;font-size: 15px;&quot;&gt;Payment&lt;/font&gt;" style="swimlane;whiteSpace=wrap;html=1;fillColor=#ffe6cc;strokeColor=#d79b00;" parent="WIyWlLk6GJQsqaUBKTNV-1" vertex="1">
          <mxGeometry x="240" y="165" width="200" height="400" as="geometry" />
        </mxCell>
        <mxCell id="9yEsw26_se_vAOjHs-4n-160" value="&lt;font style=&quot;font-size: 14px;&quot;&gt;-&amp;nbsp; paymentID&lt;/font&gt;" style="text;html=1;align=left;verticalAlign=middle;resizable=0;points=[];autosize=1;strokeColor=none;fillColor=none;" parent="9yEsw26_se_vAOjHs-4n-159" vertex="1">
          <mxGeometry y="30" width="100" height="30" as="geometry" />
        </mxCell>
        <mxCell id="9yEsw26_se_vAOjHs-4n-161" value="&lt;font style=&quot;font-size: 14px;&quot;&gt;-&amp;nbsp; amount&lt;/font&gt;" style="text;html=1;align=left;verticalAlign=middle;resizable=0;points=[];autosize=1;strokeColor=none;fillColor=none;" parent="9yEsw26_se_vAOjHs-4n-159" vertex="1">
          <mxGeometry y="60" width="80" height="30" as="geometry" />
        </mxCell>
        <mxCell id="9yEsw26_se_vAOjHs-4n-162" value="" style="line;strokeWidth=1;fillColor=none;align=left;verticalAlign=middle;spacingTop=-1;spacingLeft=3;spacingRight=3;rotatable=0;labelPosition=right;points=[];portConstraint=eastwest;strokeColor=inherit;" parent="9yEsw26_se_vAOjHs-4n-159" vertex="1">
          <mxGeometry y="182" width="200" height="8" as="geometry" />
        </mxCell>
        <mxCell id="9yEsw26_se_vAOjHs-4n-165" value="&lt;font style=&quot;font-size: 14px;&quot;&gt;+&amp;nbsp; displayReciept()&lt;/font&gt;" style="text;html=1;align=left;verticalAlign=middle;resizable=0;points=[];autosize=1;strokeColor=none;fillColor=none;" parent="9yEsw26_se_vAOjHs-4n-159" vertex="1">
          <mxGeometry y="250" width="140" height="30" as="geometry" />
        </mxCell>
        <mxCell id="9yEsw26_se_vAOjHs-4n-166" value="&lt;font style=&quot;font-size: 14px;&quot;&gt;+&amp;nbsp; getPayment()&lt;/font&gt;" style="text;html=1;align=left;verticalAlign=middle;resizable=0;points=[];autosize=1;strokeColor=none;fillColor=none;" parent="9yEsw26_se_vAOjHs-4n-159" vertex="1">
          <mxGeometry y="190" width="120" height="30" as="geometry" />
        </mxCell>
        <mxCell id="9yEsw26_se_vAOjHs-4n-169" value="&lt;font style=&quot;font-size: 14px;&quot;&gt;-&amp;nbsp; userName&lt;/font&gt;" style="text;html=1;align=left;verticalAlign=middle;resizable=0;points=[];autosize=1;strokeColor=none;fillColor=none;rotation=0;" parent="9yEsw26_se_vAOjHs-4n-159" vertex="1">
          <mxGeometry y="90" width="100" height="30" as="geometry" />
        </mxCell>
        <mxCell id="9yEsw26_se_vAOjHs-4n-171" value="&lt;font style=&quot;font-size: 14px;&quot;&gt;+&amp;nbsp; totalCost()&lt;/font&gt;" style="text;html=1;align=left;verticalAlign=middle;resizable=0;points=[];autosize=1;strokeColor=none;fillColor=none;" parent="9yEsw26_se_vAOjHs-4n-159" vertex="1">
          <mxGeometry y="220" width="100" height="30" as="geometry" />
        </mxCell>
        <mxCell id="9yEsw26_se_vAOjHs-4n-172" value="&lt;font style=&quot;font-size: 14px;&quot;&gt;-&amp;nbsp; mobile_number&lt;/font&gt;" style="text;html=1;align=left;verticalAlign=middle;resizable=0;points=[];autosize=1;strokeColor=none;fillColor=none;" parent="9yEsw26_se_vAOjHs-4n-159" vertex="1">
          <mxGeometry y="120" width="130" height="30" as="geometry" />
        </mxCell>
        <mxCell id="eH0o6GatKUuqiOO1txtq-0" value="&lt;font style=&quot;font-size: 14px;&quot;&gt;+&amp;nbsp; transaction()&lt;/font&gt;" style="text;html=1;align=left;verticalAlign=middle;resizable=0;points=[];autosize=1;strokeColor=none;fillColor=none;" parent="9yEsw26_se_vAOjHs-4n-159" vertex="1">
          <mxGeometry y="280" width="120" height="30" as="geometry" />
        </mxCell>
        <mxCell id="eH0o6GatKUuqiOO1txtq-2" value="&lt;font style=&quot;font-size: 14px;&quot;&gt;-&amp;nbsp; balance&lt;/font&gt;" style="text;html=1;align=left;verticalAlign=middle;resizable=0;points=[];autosize=1;strokeColor=none;fillColor=none;" parent="9yEsw26_se_vAOjHs-4n-159" vertex="1">
          <mxGeometry y="150" width="80" height="30" as="geometry" />
        </mxCell>
        <mxCell id="LpYX-bLlqctvAwsmR8vE-2" style="edgeStyle=orthogonalEdgeStyle;rounded=0;orthogonalLoop=1;jettySize=auto;html=1;exitX=0.25;exitY=0;exitDx=0;exitDy=0;endArrow=none;endFill=0;" edge="1" parent="WIyWlLk6GJQsqaUBKTNV-1" source="Fz7Sqv5tZNAhbaINTQDV-4">
          <mxGeometry relative="1" as="geometry">
            <mxPoint x="-120" y="-480" as="targetPoint" />
            <Array as="points">
              <mxPoint x="-160" y="-410" />
            </Array>
          </mxGeometry>
        </mxCell>
        <mxCell id="Fz7Sqv5tZNAhbaINTQDV-4" value="&lt;font style=&quot;font-size: 15px;&quot;&gt;&amp;nbsp;Pickup Point&lt;/font&gt;" style="swimlane;whiteSpace=wrap;html=1;fillColor=#d5e8d4;strokeColor=#82b366;" parent="WIyWlLk6GJQsqaUBKTNV-1" vertex="1">
          <mxGeometry x="-220" y="-410" width="200" height="340" as="geometry" />
        </mxCell>
        <mxCell id="Fz7Sqv5tZNAhbaINTQDV-5" value="&lt;font style=&quot;font-size: 14px;&quot;&gt;&amp;nbsp;- user&lt;/font&gt;" style="text;html=1;align=left;verticalAlign=middle;resizable=0;points=[];autosize=1;strokeColor=none;fillColor=none;" parent="Fz7Sqv5tZNAhbaINTQDV-4" vertex="1">
          <mxGeometry y="25" width="60" height="30" as="geometry" />
        </mxCell>
        <mxCell id="Fz7Sqv5tZNAhbaINTQDV-6" value="&lt;font style=&quot;font-size: 14px;&quot;&gt;&amp;nbsp;- bikeNumber&lt;/font&gt;" style="text;html=1;align=left;verticalAlign=middle;resizable=0;points=[];autosize=1;strokeColor=none;fillColor=none;" parent="Fz7Sqv5tZNAhbaINTQDV-4" vertex="1">
          <mxGeometry y="55" width="110" height="30" as="geometry" />
        </mxCell>
        <mxCell id="Fz7Sqv5tZNAhbaINTQDV-7" value="&lt;font style=&quot;font-size: 14px;&quot;&gt;&amp;nbsp;- bikePickupPoints&lt;/font&gt;" style="text;html=1;align=left;verticalAlign=middle;resizable=0;points=[];autosize=1;strokeColor=none;fillColor=none;" parent="Fz7Sqv5tZNAhbaINTQDV-4" vertex="1">
          <mxGeometry y="85" width="140" height="30" as="geometry" />
        </mxCell>
        <mxCell id="Fz7Sqv5tZNAhbaINTQDV-8" value="" style="line;strokeWidth=1;fillColor=none;align=left;verticalAlign=middle;spacingTop=-1;spacingLeft=3;spacingRight=3;rotatable=0;labelPosition=right;points=[];portConstraint=eastwest;strokeColor=inherit;" parent="Fz7Sqv5tZNAhbaINTQDV-4" vertex="1">
          <mxGeometry y="182" width="200" height="8" as="geometry" />
        </mxCell>
        <mxCell id="Fz7Sqv5tZNAhbaINTQDV-9" value="&lt;font style=&quot;font-size: 14px;&quot;&gt;+ location()&lt;/font&gt;" style="text;html=1;align=center;verticalAlign=middle;resizable=0;points=[];autosize=1;strokeColor=none;fillColor=none;" parent="Fz7Sqv5tZNAhbaINTQDV-4" vertex="1">
          <mxGeometry x="-5" y="190" width="90" height="30" as="geometry" />
        </mxCell>
        <mxCell id="Fz7Sqv5tZNAhbaINTQDV-10" value="&lt;font style=&quot;font-size: 14px;&quot;&gt;+findNearestPickupPoint()&lt;/font&gt;" style="text;html=1;align=center;verticalAlign=middle;resizable=0;points=[];autosize=1;strokeColor=none;fillColor=none;" parent="Fz7Sqv5tZNAhbaINTQDV-4" vertex="1">
          <mxGeometry x="-15" y="230" width="190" height="30" as="geometry" />
        </mxCell>
        <mxCell id="Fz7Sqv5tZNAhbaINTQDV-11" value="&lt;font style=&quot;font-size: 14px;&quot;&gt;&amp;nbsp;- location&lt;/font&gt;" style="text;html=1;align=left;verticalAlign=middle;resizable=0;points=[];autosize=1;strokeColor=none;fillColor=none;" parent="Fz7Sqv5tZNAhbaINTQDV-4" vertex="1">
          <mxGeometry y="115" width="80" height="30" as="geometry" />
        </mxCell>
        <mxCell id="Fz7Sqv5tZNAhbaINTQDV-12" value="&lt;font style=&quot;font-size: 14px;&quot;&gt;+getBike()&amp;nbsp;&lt;/font&gt;" style="text;html=1;align=center;verticalAlign=middle;resizable=0;points=[];autosize=1;strokeColor=none;fillColor=none;" parent="Fz7Sqv5tZNAhbaINTQDV-4" vertex="1">
          <mxGeometry x="-5" y="270" width="90" height="30" as="geometry" />
        </mxCell>
        <mxCell id="eH0o6GatKUuqiOO1txtq-1" value="&lt;font style=&quot;font-size: 14px;&quot;&gt;&amp;nbsp;- availableBike&lt;/font&gt;" style="text;html=1;align=left;verticalAlign=middle;resizable=0;points=[];autosize=1;strokeColor=none;fillColor=none;" parent="Fz7Sqv5tZNAhbaINTQDV-4" vertex="1">
          <mxGeometry y="145" width="120" height="30" as="geometry" />
        </mxCell>
        <mxCell id="4qSzIOO_ZTqhYEnF2Uh6-1" value="" style="endArrow=diamondThin;html=1;rounded=0;endFill=0;endSize=24;exitX=0.012;exitY=0.278;exitDx=0;exitDy=0;exitPerimeter=0;" parent="WIyWlLk6GJQsqaUBKTNV-1" edge="1" source="9yEsw26_se_vAOjHs-4n-72">
          <mxGeometry width="50" height="50" relative="1" as="geometry">
            <mxPoint x="-20" y="-320" as="sourcePoint" />
            <mxPoint x="-20" y="-280" as="targetPoint" />
          </mxGeometry>
        </mxCell>
        <mxCell id="4qSzIOO_ZTqhYEnF2Uh6-3" value="&lt;font style=&quot;font-size: 18px;&quot;&gt;rides&lt;/font&gt;" style="text;html=1;align=center;verticalAlign=middle;resizable=0;points=[];autosize=1;strokeColor=none;fillColor=none;" parent="WIyWlLk6GJQsqaUBKTNV-1" vertex="1">
          <mxGeometry x="500" y="-341" width="60" height="40" as="geometry" />
        </mxCell>
        <mxCell id="4qSzIOO_ZTqhYEnF2Uh6-10" value="" style="endArrow=none;html=1;rounded=0;" parent="WIyWlLk6GJQsqaUBKTNV-1" edge="1">
          <mxGeometry relative="1" as="geometry">
            <mxPoint x="-120" y="-480" as="sourcePoint" />
            <mxPoint x="470" y="-480" as="targetPoint" />
          </mxGeometry>
        </mxCell>
        <mxCell id="4qSzIOO_ZTqhYEnF2Uh6-13" value="&lt;font style=&quot;font-size: 17px;&quot;&gt;creates&lt;/font&gt;" style="text;html=1;align=center;verticalAlign=middle;resizable=0;points=[];autosize=1;strokeColor=none;fillColor=none;" parent="WIyWlLk6GJQsqaUBKTNV-1" vertex="1">
          <mxGeometry x="861" y="-341" width="80" height="30" as="geometry" />
        </mxCell>
        <mxCell id="4qSzIOO_ZTqhYEnF2Uh6-25" value="" style="triangle;whiteSpace=wrap;html=1;rotation=0;" parent="WIyWlLk6GJQsqaUBKTNV-1" vertex="1">
          <mxGeometry x="907" y="594.5" width="10" height="11" as="geometry" />
        </mxCell>
        <mxCell id="4qSzIOO_ZTqhYEnF2Uh6-26" value="&lt;font style=&quot;font-size: 18px;&quot;&gt;navigates&lt;/font&gt;" style="text;html=1;align=center;verticalAlign=middle;resizable=0;points=[];autosize=1;strokeColor=none;fillColor=none;" parent="WIyWlLk6GJQsqaUBKTNV-1" vertex="1">
          <mxGeometry x="900" y="33" width="100" height="40" as="geometry" />
        </mxCell>
        <mxCell id="4qSzIOO_ZTqhYEnF2Uh6-27" style="edgeStyle=orthogonalEdgeStyle;rounded=0;orthogonalLoop=1;jettySize=auto;html=1;exitX=1;exitY=0.25;exitDx=0;exitDy=0;entryX=0.143;entryY=0.419;entryDx=0;entryDy=0;entryPerimeter=0;endArrow=none;endFill=0;" parent="WIyWlLk6GJQsqaUBKTNV-1" source="9yEsw26_se_vAOjHs-4n-32" target="9yEsw26_se_vAOjHs-4n-56" edge="1">
          <mxGeometry relative="1" as="geometry" />
        </mxCell>
        <mxCell id="4qSzIOO_ZTqhYEnF2Uh6-31" value="" style="triangle;whiteSpace=wrap;html=1;rotation=-180;" parent="WIyWlLk6GJQsqaUBKTNV-1" vertex="1">
          <mxGeometry x="490" y="-326.5" width="10" height="11" as="geometry" />
        </mxCell>
        <mxCell id="4qSzIOO_ZTqhYEnF2Uh6-32" value="" style="triangle;whiteSpace=wrap;html=1;rotation=0;" parent="WIyWlLk6GJQsqaUBKTNV-1" vertex="1">
          <mxGeometry x="945" y="-331.5" width="10" height="11" as="geometry" />
        </mxCell>
        <mxCell id="4qSzIOO_ZTqhYEnF2Uh6-33" value="&lt;font style=&quot;font-size: 15px;&quot;&gt;stops at&lt;/font&gt;" style="text;html=1;align=center;verticalAlign=middle;resizable=0;points=[];autosize=1;strokeColor=none;fillColor=none;" parent="WIyWlLk6GJQsqaUBKTNV-1" vertex="1">
          <mxGeometry x="50" y="43" width="80" height="30" as="geometry" />
        </mxCell>
        <mxCell id="4qSzIOO_ZTqhYEnF2Uh6-34" value="" style="triangle;whiteSpace=wrap;html=1;rotation=-180;" parent="WIyWlLk6GJQsqaUBKTNV-1" vertex="1">
          <mxGeometry x="40" y="52.5" width="10" height="11" as="geometry" />
        </mxCell>
        <mxCell id="LpYX-bLlqctvAwsmR8vE-6" style="edgeStyle=orthogonalEdgeStyle;rounded=0;orthogonalLoop=1;jettySize=auto;html=1;exitX=1;exitY=0.5;exitDx=0;exitDy=0;entryX=0.016;entryY=0.22;entryDx=0;entryDy=0;entryPerimeter=0;endArrow=none;endFill=0;" edge="1" parent="WIyWlLk6GJQsqaUBKTNV-1" source="9yEsw26_se_vAOjHs-4n-67" target="9yEsw26_se_vAOjHs-4n-39">
          <mxGeometry relative="1" as="geometry" />
        </mxCell>
        <mxCell id="LpYX-bLlqctvAwsmR8vE-8" value="" style="triangle;whiteSpace=wrap;html=1;rotation=-180;" vertex="1" parent="WIyWlLk6GJQsqaUBKTNV-1">
          <mxGeometry x="430" y="57.5" width="10" height="11" as="geometry" />
        </mxCell>
        <mxCell id="LpYX-bLlqctvAwsmR8vE-9" value="&lt;font style=&quot;font-size: 15px;&quot;&gt;pays&lt;/font&gt;" style="text;html=1;align=center;verticalAlign=middle;resizable=0;points=[];autosize=1;strokeColor=none;fillColor=none;" vertex="1" parent="WIyWlLk6GJQsqaUBKTNV-1">
          <mxGeometry x="440" y="48" width="60" height="30" as="geometry" />
        </mxCell>
        <mxCell id="LpYX-bLlqctvAwsmR8vE-11" value="&lt;font style=&quot;font-size: 15px;&quot;&gt;deducts from&lt;/font&gt;" style="text;html=1;align=center;verticalAlign=middle;resizable=0;points=[];autosize=1;strokeColor=none;fillColor=none;" vertex="1" parent="WIyWlLk6GJQsqaUBKTNV-1">
          <mxGeometry x="797" y="585" width="110" height="30" as="geometry" />
        </mxCell>
        <mxCell id="LpYX-bLlqctvAwsmR8vE-16" value="" style="triangle;whiteSpace=wrap;html=1;rotation=-180;" vertex="1" parent="WIyWlLk6GJQsqaUBKTNV-1">
          <mxGeometry x="890" y="46.5" width="10" height="11" as="geometry" />
        </mxCell>
        <mxCell id="LpYX-bLlqctvAwsmR8vE-17" value="&lt;font style=&quot;font-size: 15px;&quot;&gt;1&lt;/font&gt;" style="text;html=1;align=center;verticalAlign=middle;resizable=0;points=[];autosize=1;strokeColor=none;fillColor=none;" vertex="1" parent="WIyWlLk6GJQsqaUBKTNV-1">
          <mxGeometry x="470" y="-560" width="30" height="30" as="geometry" />
        </mxCell>
        <mxCell id="LpYX-bLlqctvAwsmR8vE-18" value="&lt;font style=&quot;font-size: 15px;&quot;&gt;1....*&lt;/font&gt;" style="text;html=1;align=center;verticalAlign=middle;resizable=0;points=[];autosize=1;strokeColor=none;fillColor=none;" vertex="1" parent="WIyWlLk6GJQsqaUBKTNV-1">
          <mxGeometry x="710" y="-440" width="50" height="30" as="geometry" />
        </mxCell>
        <mxCell id="LpYX-bLlqctvAwsmR8vE-19" value="&lt;font style=&quot;font-size: 15px;&quot;&gt;1&lt;/font&gt;" style="text;html=1;align=center;verticalAlign=middle;resizable=0;points=[];autosize=1;strokeColor=none;fillColor=none;" vertex="1" parent="WIyWlLk6GJQsqaUBKTNV-1">
          <mxGeometry x="825" y="-342" width="30" height="30" as="geometry" />
        </mxCell>
        <mxCell id="LpYX-bLlqctvAwsmR8vE-20" value="&lt;font style=&quot;font-size: 15px;&quot;&gt;1....2&lt;/font&gt;" style="text;html=1;align=center;verticalAlign=middle;resizable=0;points=[];autosize=1;strokeColor=none;fillColor=none;" vertex="1" parent="WIyWlLk6GJQsqaUBKTNV-1">
          <mxGeometry x="950" y="-342" width="60" height="30" as="geometry" />
        </mxCell>
        <mxCell id="LpYX-bLlqctvAwsmR8vE-21" value="&lt;font style=&quot;font-size: 15px;&quot;&gt;1&lt;/font&gt;" style="text;html=1;align=center;verticalAlign=middle;resizable=0;points=[];autosize=1;strokeColor=none;fillColor=none;" vertex="1" parent="WIyWlLk6GJQsqaUBKTNV-1">
          <mxGeometry x="575" y="-322" width="30" height="30" as="geometry" />
        </mxCell>
        <mxCell id="LpYX-bLlqctvAwsmR8vE-22" value="&lt;font style=&quot;font-size: 15px;&quot;&gt;0..*&lt;/font&gt;" style="text;html=1;align=center;verticalAlign=middle;resizable=0;points=[];autosize=1;strokeColor=none;fillColor=none;" vertex="1" parent="WIyWlLk6GJQsqaUBKTNV-1">
          <mxGeometry x="410" y="-322" width="50" height="30" as="geometry" />
        </mxCell>
        <mxCell id="LpYX-bLlqctvAwsmR8vE-23" value="&lt;font style=&quot;font-size: 15px;&quot;&gt;1&lt;/font&gt;" style="text;html=1;align=center;verticalAlign=middle;resizable=0;points=[];autosize=1;strokeColor=none;fillColor=none;strokeWidth=1;" vertex="1" parent="WIyWlLk6GJQsqaUBKTNV-1">
          <mxGeometry x="-20" y="-312" width="30" height="30" as="geometry" />
        </mxCell>
        <mxCell id="LpYX-bLlqctvAwsmR8vE-24" value="&lt;font style=&quot;font-size: 15px;&quot;&gt;1....*&lt;/font&gt;" style="text;html=1;align=center;verticalAlign=middle;resizable=0;points=[];autosize=1;strokeColor=none;fillColor=none;" vertex="1" parent="WIyWlLk6GJQsqaUBKTNV-1">
          <mxGeometry x="160" y="-311" width="50" height="30" as="geometry" />
        </mxCell>
        <mxCell id="LpYX-bLlqctvAwsmR8vE-25" value="&lt;font style=&quot;font-size: 15px;&quot;&gt;1&lt;/font&gt;" style="text;html=1;align=center;verticalAlign=middle;resizable=0;points=[];autosize=1;strokeColor=none;fillColor=none;" vertex="1" parent="WIyWlLk6GJQsqaUBKTNV-1">
          <mxGeometry x="685" y="-12" width="30" height="30" as="geometry" />
        </mxCell>
        <mxCell id="LpYX-bLlqctvAwsmR8vE-26" value="&lt;font style=&quot;font-size: 15px;&quot;&gt;1&lt;/font&gt;" style="text;html=1;align=center;verticalAlign=middle;resizable=0;points=[];autosize=1;strokeColor=none;fillColor=none;" vertex="1" parent="WIyWlLk6GJQsqaUBKTNV-1">
          <mxGeometry x="335" y="138" width="30" height="30" as="geometry" />
        </mxCell>
        <mxCell id="LpYX-bLlqctvAwsmR8vE-27" value="&lt;font style=&quot;font-size: 15px;&quot;&gt;0..5&lt;/font&gt;" style="text;html=1;align=center;verticalAlign=middle;resizable=0;points=[];autosize=1;strokeColor=none;fillColor=none;" vertex="1" parent="WIyWlLk6GJQsqaUBKTNV-1">
          <mxGeometry x="-120" y="135" width="50" height="30" as="geometry" />
        </mxCell>
        <mxCell id="LpYX-bLlqctvAwsmR8vE-28" value="&lt;font style=&quot;font-size: 15px;&quot;&gt;0...*&lt;/font&gt;" style="text;html=1;align=center;verticalAlign=middle;resizable=0;points=[];autosize=1;strokeColor=none;fillColor=none;" vertex="1" parent="WIyWlLk6GJQsqaUBKTNV-1">
          <mxGeometry x="285" y="565" width="50" height="30" as="geometry" />
        </mxCell>
        <mxCell id="LpYX-bLlqctvAwsmR8vE-29" value="&lt;font style=&quot;font-size: 15px;&quot;&gt;1..*&lt;/font&gt;" style="text;html=1;align=center;verticalAlign=middle;resizable=0;points=[];autosize=1;strokeColor=none;fillColor=none;" vertex="1" parent="WIyWlLk6GJQsqaUBKTNV-1">
          <mxGeometry x="1200" y="-372" width="50" height="30" as="geometry" />
        </mxCell>
        <mxCell id="LpYX-bLlqctvAwsmR8vE-30" value="&lt;font style=&quot;font-size: 15px;&quot;&gt;1&lt;/font&gt;" style="text;html=1;align=center;verticalAlign=middle;resizable=0;points=[];autosize=1;strokeColor=none;fillColor=none;" vertex="1" parent="WIyWlLk6GJQsqaUBKTNV-1">
          <mxGeometry x="1005" y="128" width="30" height="30" as="geometry" />
        </mxCell>
        <mxCell id="LpYX-bLlqctvAwsmR8vE-31" value="&lt;font style=&quot;font-size: 15px;&quot;&gt;0...*&lt;/font&gt;" style="text;html=1;align=center;verticalAlign=middle;resizable=0;points=[];autosize=1;strokeColor=none;fillColor=none;" vertex="1" parent="WIyWlLk6GJQsqaUBKTNV-1">
          <mxGeometry x="715" y="48" width="50" height="30" as="geometry" />
        </mxCell>
        <mxCell id="LpYX-bLlqctvAwsmR8vE-32" value="&lt;font style=&quot;font-size: 15px;&quot;&gt;1&lt;/font&gt;" style="text;html=1;align=center;verticalAlign=middle;resizable=0;points=[];autosize=1;strokeColor=none;fillColor=none;" vertex="1" parent="WIyWlLk6GJQsqaUBKTNV-1">
          <mxGeometry x="445" y="318" width="30" height="30" as="geometry" />
        </mxCell>
        <mxCell id="LpYX-bLlqctvAwsmR8vE-33" value="&lt;font style=&quot;font-size: 15px;&quot;&gt;1&lt;/font&gt;" style="text;html=1;align=center;verticalAlign=middle;resizable=0;points=[];autosize=1;strokeColor=none;fillColor=none;" vertex="1" parent="WIyWlLk6GJQsqaUBKTNV-1">
          <mxGeometry x="545" y="318" width="30" height="30" as="geometry" />
        </mxCell>
      </root>
    </mxGraphModel>
  </diagram>
</mxfile>
